HIERARCHY
ROOT joint_Root
{
	OFFSET 0.0 0.0 0.0
	CHANNELS 6 Xposition Yposition Zposition Zrotation Xrotation Yrotation 
	JOINT Hips
	{
		OFFSET -0.726466 93.3139 -2.00062
		CHANNELS 6 Xposition Yposition Zposition Zrotation Xrotation Yrotation 
		JOINT Spine
		{
			OFFSET 15.7357 0.0 0.0
			CHANNELS 6 Xposition Yposition Zposition Zrotation Xrotation Yrotation 
			JOINT Chest
			{
				OFFSET 8.98455 -0.406207 0.0
				CHANNELS 6 Xposition Yposition Zposition Zrotation Xrotation Yrotation 
				JOINT Neck
				{
					OFFSET 16.3773 0.0 0.0
					CHANNELS 6 Xposition Yposition Zposition Zrotation Xrotation Yrotation 
					JOINT Head
					{
						OFFSET 6.45672 0.0 0.0
						CHANNELS 6 Xposition Yposition Zposition Zrotation Xrotation Yrotation 
						End Site
						{
							OFFSET 0.0 0.0 0.0
						}
					}
				}
				JOINT Shoulder_L
				{
					OFFSET 12.9942 -0.242716 4.98039
					CHANNELS 6 Xposition Yposition Zposition Zrotation Xrotation Yrotation 
					JOINT UpperArm_L
					{
						OFFSET 5.34809 0.0 0.0
						CHANNELS 6 Xposition Yposition Zposition Zrotation Xrotation Yrotation 
						JOINT LowerArm_L
						{
							OFFSET 24.3286 1.87007e-05 0.0
							CHANNELS 6 Xposition Yposition Zposition Zrotation Xrotation Yrotation 
							JOINT Hand_L
							{
								OFFSET 22.2916 0.0 0.0
								CHANNELS 6 Xposition Yposition Zposition Zrotation Xrotation Yrotation 
								End Site
								{
									OFFSET 0.0 0.0 0.0
								}
							}
						}
					}
				}
				JOINT Shoulder_R
				{
					OFFSET 12.9945 -0.242716 -4.98039
					CHANNELS 6 Xposition Yposition Zposition Zrotation Xrotation Yrotation 
					JOINT UpperArm_R
					{
						OFFSET -5.34813 0.0 0.0
						CHANNELS 6 Xposition Yposition Zposition Zrotation Xrotation Yrotation 
						JOINT LowerArm_R
						{
							OFFSET -24.3289 0.000322201 0.0
							CHANNELS 6 Xposition Yposition Zposition Zrotation Xrotation Yrotation 
							JOINT Hand_R
							{
								OFFSET -22.2915 -0.000108084 0.0
								CHANNELS 6 Xposition Yposition Zposition Zrotation Xrotation Yrotation 
								End Site
								{
									OFFSET 0.0 0.0 0.0
								}
							}
						}
					}
				}
			}
		}
		JOINT UpperLeg_L
		{
			OFFSET -2.19248 -6.46944 0.0
			CHANNELS 6 Xposition Yposition Zposition Zrotation Xrotation Yrotation 
			JOINT LowerLeg_L
			{
				OFFSET 39.0811 0.0 -1.23785e-05
				CHANNELS 6 Xposition Yposition Zposition Zrotation Xrotation Yrotation 
				JOINT Foot_L
				{
					OFFSET 40.9854 0.0 -1.26872e-05
					CHANNELS 6 Xposition Yposition Zposition Zrotation Xrotation Yrotation 
					JOINT Toes_L
					{
						OFFSET 11.7543 0.0 0.0
						CHANNELS 6 Xposition Yposition Zposition Zrotation Xrotation Yrotation 
						End Site
						{
							OFFSET 0.0 0.0 0.0
						}
					}
				}
			}
		}
		JOINT UpperLeg_R
		{
			OFFSET -2.19251 6.46944 0.0
			CHANNELS 6 Xposition Yposition Zposition Zrotation Xrotation Yrotation 
			JOINT LowerLeg_R
			{
				OFFSET -39.0811 -0.00228153 -0.0401928
				CHANNELS 6 Xposition Yposition Zposition Zrotation Xrotation Yrotation 
				JOINT Foot_R
				{
					OFFSET -40.9854 0.0 0.0
					CHANNELS 6 Xposition Yposition Zposition Zrotation Xrotation Yrotation 
					JOINT Toes_R
					{
						OFFSET -11.7543 0.0 0.0
						CHANNELS 6 Xposition Yposition Zposition Zrotation Xrotation Yrotation 
						End Site
						{
							OFFSET 0.0 0.0 0.0
						}
					}
				}
			}
		}
	}
}
MOTION
Frames:	4
Frame Time:	0.0333333
0.000000 0.000000 0.000000 0.000000 0.000000 -0.000000 -2.113830 92.304500 -1.780400 88.654000 0.577184 4.387160 15.735700 0.000005 -0.000001 77.169300 85.515000 -75.295400 8.984550 -0.406207 -0.000000 1.017990 -2.101460 3.763790 16.377300 -0.000001 -0.000001 4.407140 -2.305570 -2.496770 6.456720 -0.000001 -0.000000 5.379890 -2.468540 -3.037460 12.994200 -0.242716 4.980390 -87.846300 -5.926000 -69.985400 5.348090 -0.000007 -0.000001 -81.716100 -31.843600 -86.238800 24.328600 0.000019 0.000005 6.586740 0.331789 -87.129100 22.291600 -0.000001 0.000005 16.233400 5.574080 -9.899120 12.994500 -0.242716 -4.980390 88.280100 5.442120 -72.431700 -5.348130 -0.000001 -0.000004 -63.163000 39.528600 -16.930600 -24.328900 0.000322 -0.000009 2.060770 7.397040 -15.622700 -22.291500 -0.000108 -0.000004 8.403220 5.424800 -3.761510 -2.192480 -6.469440 -0.000000 -175.195000 -5.670360 -2.680290 39.081100 -0.000007 -0.000012 -0.109567 0.265287 22.441400 40.985400 -0.000006 -0.000013 -0.822994 4.945940 -65.595800 11.754300 -0.000000 0.000003 -0.000027 -0.000329 -16.590400 -2.192510 6.469440 -0.000001 -179.832000 14.363100 -179.644000 -39.081100 -0.002282 -0.040193 -0.028905 0.090075 19.686000 -40.985400 0.000008 0.000006 4.445390 5.766150 -66.344000 -11.754300 -0.000006 -0.000006 -0.005714 -0.068216 -19.349200
0.000000 0.000000 0.000000 0.000000 0.000000 -0.000000 -2.151840 92.306700 -1.810580 88.645800 0.559722 4.385290 15.735700 0.000005 -0.000001 77.424400 85.519700 -75.567700 8.984550 -0.406207 -0.000000 1.016550 -2.059500 3.728950 16.377300 -0.000001 -0.000001 4.440390 -2.294790 -2.479910 6.456720 -0.000001 -0.000000 5.363840 -2.518280 -3.081680 12.994200 -0.242716 4.980390 -87.848800 -5.890940 -69.898000 5.348090 -0.000007 -0.000001 -81.482400 -31.854400 -86.054700 24.328600 0.000019 0.000005 6.474320 0.345244 -86.960700 22.291600 -0.000001 0.000005 16.191100 5.574110 -9.900620 12.994500 -0.242716 -4.980390 88.274000 5.461170 -72.430900 -5.348130 -0.000001 -0.000004 -63.102000 39.539100 -17.037500 -24.328900 0.000322 -0.000009 2.034960 7.245130 -15.742400 -22.291500 -0.000108 -0.000004 8.325490 5.425140 -3.772910 -2.192480 -6.469440 -0.000000 -175.153000 -5.708030 -2.687470 39.081100 -0.000007 -0.000012 -0.110692 0.268185 22.428200 40.985400 -0.000006 -0.000013 -0.856901 4.945680 -65.571200 11.754300 -0.000000 0.000003 -0.000024 -0.000300 -16.589300 -2.192510 6.469440 -0.000001 -179.788000 14.356800 -179.666000 -39.081100 -0.002282 -0.040193 -0.028098 0.087856 19.678600 -40.985400 0.000008 0.000006 4.481830 5.765380 -66.325600 -11.754300 -0.000006 -0.000006 -0.005629 -0.067425 -19.316900
0.000000 0.000000 0.000000 0.000000 0.000000 -0.000000 -2.187070 92.304400 -1.843370 88.619400 0.577314 4.384790 15.735700 0.000005 -0.000001 77.612300 85.524400 -75.771700 8.984550 -0.406207 -0.000000 1.012850 -2.027930 3.696440 16.377300 -0.000001 -0.000001 4.453350 -2.268500 -2.492500 6.456720 -0.000001 -0.000000 5.428500 -2.539480 -3.049840 12.994200 -0.242716 4.980390 -87.859600 -5.845520 -69.848500 5.348090 -0.000007 -0.000001 -81.237600 -31.843800 -85.891000 24.328600 0.000019 0.000005 6.471930 0.366898 -86.769200 22.291600 -0.000001 0.000005 16.163800 5.572920 -9.838380 12.994500 -0.242716 -4.980390 88.271300 5.478630 -72.457300 -5.348130 -0.000001 -0.000004 -63.113200 39.640500 -17.058700 -24.328900 0.000322 -0.000009 2.023690 7.177720 -15.798500 -22.291500 -0.000108 -0.000004 8.349690 5.426950 -3.834670 -2.192480 -6.469440 -0.000000 -175.116000 -5.612990 -2.747280 39.081100 -0.000007 -0.000012 -0.111391 0.269212 22.478300 40.985400 -0.000006 -0.000013 -0.887577 4.903400 -65.564900 11.754300 -0.000000 0.000003 -0.000030 -0.000360 -16.591600 -2.192510 6.469440 -0.000001 -179.739000 14.427200 -179.692000 -39.081100 -0.002282 -0.040193 -0.028020 0.087599 19.686600 -40.985400 0.000008 0.000006 4.502750 5.813410 -66.315300 -11.754300 -0.000006 -0.000006 -0.005821 -0.069201 -19.389300
0.000000 0.000000 0.000000 0.000000 0.000000 -0.000000 -2.222090 92.307700 -1.864460 88.642300 0.609002 4.406850 15.735700 0.000005 -0.000001 77.903400 85.515700 -76.102300 8.984550 -0.406207 -0.000000 1.037910 -1.984390 3.617510 16.377300 -0.000001 -0.000001 4.419150 -2.241790 -2.484730 6.456720 -0.000001 -0.000000 5.510760 -2.607280 -3.006730 12.994200 -0.242716 4.980390 -87.867500 -5.807370 -69.795700 5.348090 -0.000007 -0.000001 -81.007000 -31.776800 -85.712600 24.328600 0.000019 0.000005 6.400800 0.382963 -86.590400 22.291600 -0.000001 0.000005 16.044500 5.572610 -9.822380 12.994500 -0.242716 -4.980390 88.273000 5.486430 -72.496700 -5.348130 -0.000001 -0.000004 -63.266800 39.706400 -16.976800 -24.328900 0.000322 -0.000009 2.035970 7.219420 -15.802800 -22.291500 -0.000108 -0.000004 8.384320 5.427020 -3.836920 -2.192480 -6.469440 -0.000000 -175.117000 -5.560290 -2.720750 39.081100 -0.000007 -0.000012 -0.111106 0.269114 22.433800 40.985400 -0.000006 -0.000013 -0.918335 4.890510 -65.525300 11.754300 -0.000000 0.000003 -0.000025 -0.000308 -16.589600 -2.192510 6.469440 -0.000001 -179.739000 14.427500 -179.673000 -39.081100 -0.002282 -0.040193 -0.028005 0.087629 19.671500 -40.985400 0.000008 0.000006 4.465660 5.775450 -66.293700 -11.754300 -0.000006 -0.000006 -0.005974 -0.070595 -19.446200
